<svg width="471" height="408" viewBox="0 0 471 408" fill="none" xmlns="http://www.w3.org/2000/svg">
<g clip-path="url(#clip0)">
<path d="M341.948 231.524V344.231L362.442 374.955L364.001 377.292H444.863L446.497 231.524H341.948Z" fill="#E6E6E6"/>
<path opacity="0.1" d="M341.948 231.524V344.231L362.442 374.955L363.699 231.524H341.948Z" fill="black"/>
<path d="M146.737 228.518V341.225L126.244 371.949L124.684 374.286H43.8225L42.1887 228.518H146.737Z" fill="#E6E6E6"/>
<path opacity="0.1" d="M146.737 228.518V341.225L126.244 371.949L124.986 228.518H146.737Z" fill="black"/>
<path d="M471 226.264V233.026H31.5705V223.258L72.4095 203.722H435.062L471 226.264Z" fill="#E6E6E6"/>
<path opacity="0.1" d="M471 226.264V233.026H31.5705V223.258L471 226.264Z" fill="black"/>
<path d="M94.4632 260.076H74.8599L66.6921 254.816H103.448L94.4632 260.076Z" fill="#3F3D56"/>
<path d="M94.4632 281.866H74.8599L66.6921 276.606H103.448L94.4632 281.866Z" fill="#3F3D56"/>
<path d="M94.4632 312.673H74.8599L66.6921 307.413H103.448L94.4632 312.673Z" fill="#3F3D56"/>
<path d="M94.4632 343.479H74.8599L66.6921 338.22H103.448L94.4632 343.479Z" fill="#3F3D56"/>
<path d="M394.222 263.081H413.825L421.993 257.822H385.238L394.222 263.081Z" fill="#3F3D56"/>
<path d="M394.222 284.871H413.825L421.993 279.612H385.238L394.222 284.871Z" fill="#3F3D56"/>
<path d="M394.222 315.678H413.825L421.993 310.419H385.238L394.222 315.678Z" fill="#3F3D56"/>
<path d="M394.222 346.485H413.825L421.993 341.225H385.238L394.222 346.485Z" fill="#3F3D56"/>
<path d="M407.572 73.3872H242.543C241.723 73.3871 240.912 73.5356 240.154 73.8241C239.397 74.1126 238.709 74.5355 238.129 75.0687C237.55 75.6018 237.09 76.2348 236.777 76.9314C236.463 77.628 236.302 78.3747 236.302 79.1287V181.395C236.302 182.149 236.463 182.896 236.777 183.592C237.09 184.289 237.55 184.922 238.129 185.455C238.709 185.988 239.397 186.411 240.154 186.7C240.912 186.988 241.723 187.136 242.543 187.136H305.189L302.842 200.921C302.842 200.921 289.429 207.476 298.86 207.669C308.291 207.862 352.721 207.669 352.721 207.669C352.721 207.669 361.314 207.669 347.691 200.728L345.484 187.136H407.572C408.391 187.136 409.203 186.988 409.96 186.7C410.717 186.411 411.405 185.988 411.985 185.455C412.564 184.922 413.024 184.289 413.338 183.592C413.651 182.896 413.813 182.149 413.813 181.395V79.1287C413.813 78.3747 413.651 77.628 413.338 76.9314C413.024 76.2348 412.564 75.6018 411.985 75.0687C411.405 74.5355 410.717 74.1126 409.96 73.8241C409.203 73.5356 408.391 73.3871 407.572 73.3872V73.3872Z" fill="#3F3D56"/>
<path d="M407.84 79.4603H242.275V164.676H407.84V79.4603Z" fill="#F2F2F2"/>
<path d="M325.057 77.7251C325.636 77.7251 326.105 77.2935 326.105 76.7612C326.105 76.2288 325.636 75.7972 325.057 75.7972C324.478 75.7972 324.009 76.2288 324.009 76.7612C324.009 77.2935 324.478 77.7251 325.057 77.7251Z" fill="#F2F2F2"/>
<path d="M325.057 182.991C327.256 182.991 329.039 181.351 329.039 179.328C329.039 177.305 327.256 175.665 325.057 175.665C322.858 175.665 321.075 177.305 321.075 179.328C321.075 181.351 322.858 182.991 325.057 182.991Z" fill="#F2F2F2"/>
<path d="M318.852 218.08V220.008H206.1V218.466L206.255 218.08L209.034 211.14H316.547L318.852 218.08Z" fill="#3F3D56"/>
<path d="M362.243 216.193C362.037 217 361.262 217.853 359.51 218.658C353.223 221.55 340.438 217.887 340.438 217.887C340.438 217.887 330.588 216.345 330.588 212.296C330.865 212.122 331.153 211.964 331.452 211.824C334.095 210.537 342.86 207.363 358.4 211.958C359.545 212.289 360.567 212.905 361.354 213.739C361.702 214.054 361.965 214.441 362.119 214.868C362.274 215.294 362.316 215.748 362.243 216.193Z" fill="#3F3D56"/>
<path opacity="0.1" d="M362.243 216.193C354.547 218.905 347.688 219.108 340.648 214.61C337.986 212.799 334.762 211.823 331.452 211.824C334.095 210.537 342.86 207.363 358.4 211.958C359.545 212.289 360.568 212.905 361.354 213.739C361.702 214.054 361.965 214.441 362.119 214.868C362.274 215.294 362.316 215.748 362.243 216.193Z" fill="black"/>
<path d="M352.594 214.61C354.099 214.61 355.318 214.264 355.318 213.839C355.318 213.413 354.099 213.067 352.594 213.067C351.089 213.067 349.869 213.413 349.869 213.839C349.869 214.264 351.089 214.61 352.594 214.61Z" fill="#F2F2F2"/>
<path opacity="0.1" d="M318.852 218.08V220.008H206.1V218.466L206.255 218.08H318.852Z" fill="black"/>
<path d="M62.6917 8.56385e-05C61.5473 -0.0863441 60.4015 0.149131 59.406 0.67531C58.4284 1.29113 57.8123 2.36999 57.1834 3.37393C54.7789 7.25824 51.5237 10.6408 47.624 13.3074C44.7836 15.2217 41.1724 17.6085 41.6583 21.1379C41.9147 22.3034 42.3828 23.4209 43.0429 24.4433C45.6632 29.3093 52.8138 33.0698 52.1104 38.6223C54.7138 34.6129 51.2316 32.6304 53.835 28.621C55.0748 26.7117 57.2285 24.5564 59.1004 25.7554C59.7271 26.1569 60.1387 26.877 60.7913 27.2293C62.3484 28.0699 64.005 26.4629 65.3834 25.3246C70.1364 21.3995 76.8957 22.4278 82.8103 23.6507C85.6026 24.2281 88.6696 24.9856 90.3203 27.4407C92.4906 30.6686 88.2584 34.1548 87.189 37.8042C87.1017 38.1152 87.0976 38.441 87.177 38.7537C87.2564 39.0665 87.417 39.3569 87.645 39.6001C87.873 39.8433 88.1616 40.0321 88.4862 40.1504C88.8108 40.2686 89.1617 40.3128 89.5089 40.279C91.2837 40.118 93.386 39.986 93.491 39.2696C95.7239 39.3427 98.4598 39.1101 99.4166 36.9712C99.709 36.1249 99.8635 35.2435 99.8752 34.3556C100.226 30.7628 101.884 27.485 102.982 24.0655C104.08 20.646 104.558 16.6385 102.704 13.6067C102.043 12.598 101.225 11.6835 100.277 10.8922C89.7604 1.53012 75.9338 -0.0138112 62.6917 8.56385e-05Z" fill="#2F2E41"/>
<path d="M54.3975 45.6355C54.3975 45.6355 56.6846 63.1686 48.2986 64.5712C39.9126 65.9739 55.9222 89.8188 55.9222 89.8188L94.0405 94.0268L84.8921 65.9739C84.8921 65.9739 78.7932 63.8699 82.6051 49.8435C86.4169 35.817 54.3975 45.6355 54.3975 45.6355Z" fill="#FFB8B8"/>
<path d="M31.1453 346.853L34.1951 385.426H50.2042L45.6306 346.853H31.1453Z" fill="#FFB8B8"/>
<path d="M148.55 273.916L150.836 306.177L168.371 299.164L161.51 272.514L148.55 273.916Z" fill="#FFB8B8"/>
<path d="M19.7099 199.576C19.7099 199.576 20.4722 240.253 25.0465 253.578C29.6207 266.903 28.8583 267.604 28.0959 269.708C27.3336 271.812 26.5712 270.409 26.5712 273.916C26.5712 277.423 25.0465 332.827 26.5712 337.736C28.0959 342.646 21.997 351.061 26.5712 351.763C31.1454 352.464 52.4916 351.763 53.254 347.555C54.0164 343.347 47.1551 341.944 50.2045 339.139C53.254 336.334 57.8282 278.825 57.8282 278.825L68.5013 238.85L88.3228 217.81H130.253L143.213 264.098C143.213 264.098 137.877 277.423 141.688 277.423C145.5 277.423 168.371 281.631 168.371 266.201C168.371 250.772 160.748 205.186 159.223 203.784C157.698 202.381 159.985 197.472 157.698 195.368C155.411 193.264 128.728 178.536 118.817 175.731C108.907 172.926 95.0036 169.587 95.0036 169.587L19.7099 199.576Z" fill="#2F2E41"/>
<path d="M168.371 293.553C168.371 293.553 156.936 290.046 151.599 300.566C146.263 311.086 148.55 313.891 148.55 313.891C148.55 313.891 166.084 319.502 169.134 316.697C170.46 315.476 174.673 315.052 179.01 314.963C185.615 314.826 187.372 306.23 181.134 304.229C180.948 304.169 180.76 304.117 180.569 304.073C174.47 302.67 168.371 293.553 168.371 293.553Z" fill="#2F2E41"/>
<path d="M71.5507 57.2073C84.182 57.2073 94.4217 47.7876 94.4217 36.1677C94.4217 24.5478 84.182 15.128 71.5507 15.128C58.9194 15.128 48.6798 24.5478 48.6798 36.1677C48.6798 47.7876 58.9194 57.2073 71.5507 57.2073Z" fill="#FFB8B8"/>
<path d="M41.8185 73.3378C41.8185 73.3378 79.1744 80.351 88.3228 69.1298C97.4712 57.9087 101.283 100.689 101.283 100.689L105.857 145.574L98.9959 170.12C98.9959 170.12 63.1647 196.771 51.7292 198.874C40.2938 200.978 22.7593 202.381 22.7593 202.381C22.7593 202.381 28.0959 124.534 28.0959 123.132C28.0959 121.729 41.8185 73.3378 41.8185 73.3378Z" fill="#084B83"/>
<path d="M53.1793 60.1847C53.1793 60.1847 44.868 55.8047 42.5809 60.0126C40.2938 64.2206 18.9475 74.7404 16.6604 74.7404C14.3733 74.7404 21.2346 132.95 18.1852 139.963C15.1357 146.977 0.650747 198.173 9.03677 202.381C17.4228 206.589 11.3239 198.173 19.7099 208.693C28.0959 219.213 69.2636 219.213 71.5507 215.005C73.8378 210.797 53.254 179.237 57.0658 149.782C60.8776 120.326 66.9766 79.6497 61.64 74.0391C56.3034 68.4285 53.1793 60.1847 53.1793 60.1847Z" fill="#2F2E41"/>
<path d="M80.6992 64.9219L81.7611 61.5601C81.7611 61.5601 113.481 71.2338 115.006 77.5457C116.53 83.8576 115.768 128.041 110.431 131.548C105.095 135.054 97.4712 140.665 102.808 149.081C108.144 157.496 114.243 166.614 118.817 167.315C123.392 168.016 131.778 172.926 129.491 177.835C127.203 182.744 99.7583 173.627 99.7583 173.627C99.7583 173.627 81.4615 161.003 82.2239 141.366C82.9863 121.729 80.6992 64.9219 80.6992 64.9219Z" fill="#2F2E41"/>
<path d="M107.382 147.678L89.0852 179.237C89.0852 179.237 62.4024 204.485 77.6497 207.29C92.897 210.096 101.283 184.147 101.283 184.147L121.105 158.198L107.382 147.678Z" fill="#FFB8B8"/>
<path d="M63.8058 5.50508C62.8839 5.44224 61.9606 5.607 61.1311 5.98232C60.3811 6.48621 59.763 7.13787 59.3219 7.88969C57.2884 10.7035 54.6378 13.095 51.5401 14.9106C49.2279 16.2636 46.2882 17.9506 46.6838 20.4451C46.8986 21.2815 47.2808 22.0737 47.8109 22.7814C49.9513 26.2554 50.8034 30.2763 50.2382 34.2356L56.5961 25.7342C57.6054 24.3847 59.3586 22.8613 60.8824 23.7088C61.3926 23.9926 61.7276 24.5015 62.2588 24.7505C63.5264 25.3446 64.875 24.2088 65.997 23.4043C69.8662 20.63 75.3685 21.3568 80.1833 22.2212C82.4563 22.6293 84.953 23.1647 86.2967 24.8999C88.5297 27.7835 86.198 31.9501 87.5013 35.2814C87.8661 35.0465 88.1759 34.7465 88.4123 34.3994C88.6488 34.0522 88.8071 33.6649 88.8778 33.2605C90.6955 33.3122 92.9226 33.1478 93.7014 31.636C93.9383 31.0435 94.0645 30.4185 94.0748 29.7873C94.3606 27.2479 95.71 24.9312 96.6039 22.5143C97.4978 20.0975 97.8865 17.265 96.3779 15.1222C95.8261 14.3961 95.16 13.7495 94.4016 13.2035C85.8409 6.58648 74.5855 5.49526 63.8058 5.50508Z" fill="#2F2E41"/>
<path d="M107.382 74.7404L114.485 76.4748C114.485 76.4748 131.015 115.417 127.203 142.067C123.392 168.718 121.104 163.107 121.104 163.107C121.104 163.107 115.006 150.483 101.283 153.289L107.382 74.7404Z" fill="#2F2E41"/>
<path d="M32.2016 380.329C30.3632 382.627 30.7318 385.912 29.1033 388.341C27.6917 390.446 25.0314 391.549 23.2658 393.415C22.7024 394.034 22.2001 394.699 21.765 395.401C20.1271 397.925 18.7958 401.159 20.4089 403.697C21.7065 405.738 24.4341 406.535 26.9356 407.079C30.0973 407.766 33.3824 408.316 36.5806 407.791C39.7788 407.266 42.9045 405.464 44.0448 402.666C44.269 401.962 44.5354 401.271 44.8429 400.594C46.5764 397.455 52.0137 397.421 53.7878 394.301C55.0293 392.117 53.888 389.478 52.7472 387.248L49.263 380.439C48.1067 378.179 43.4193 379.478 40.9757 378.937C37.7887 378.231 34.4943 377.452 32.2016 380.329Z" fill="#2F2E41"/>
<path d="M6.74966 161.704L38.769 207.29C38.769 207.29 58.5905 230.434 64.6894 219.914C70.7884 209.394 43.3432 191.861 43.3432 191.861L22.7593 156.795L6.74966 161.704Z" fill="#FFB8B8"/>
<path d="M22.7593 76.143L16.6604 74.7404C16.6604 74.7404 4.46257 78.247 1.41311 92.9748C-1.63635 107.703 0.650737 166.614 4.46256 167.315C8.27439 168.016 23.2891 157.057 25.6925 159.381C28.0959 161.704 20.4722 149.782 22.7593 143.47C25.0464 137.158 22.7593 76.143 22.7593 76.143Z" fill="#2F2E41"/>
<path d="M309.387 107.448H289.682V111.812H309.387V107.448Z" fill="#084B83"/>
<path d="M377.621 107.448H370.688V111.812H377.621V107.448Z" fill="#084B83"/>
<path d="M391.487 107.448H384.554V111.812H391.487V107.448Z" fill="#084B83"/>
<path d="M363.391 107.448H316.32V111.812H363.391V107.448Z" fill="#084B83"/>
<path d="M284.574 135.645H264.87V140.008H284.574V135.645Z" fill="#084B83"/>
<path d="M352.809 135.645H345.876V140.008H352.809V135.645Z" fill="#084B83"/>
<path d="M366.675 135.645H359.742V140.008H366.675V135.645Z" fill="#084B83"/>
<path d="M338.578 135.645H291.507V140.008H338.578V135.645Z" fill="#084B83"/>
<path d="M365.945 117.182H346.241V121.546H365.945V117.182Z" fill="#084B83"/>
<path d="M392.582 117.182H372.878V121.546H392.582V117.182Z" fill="#084B83"/>
<path d="M271.803 117.182H264.87V121.546H271.803V117.182Z" fill="#084B83"/>
<path d="M285.669 117.182H278.736V121.546H285.669V117.182Z" fill="#084B83"/>
<path d="M339.673 117.182H292.602V121.546H339.673V117.182Z" fill="#084B83"/>
<path d="M325.077 126.581H305.373V130.945H325.077V126.581Z" fill="#084B83"/>
<path d="M298.44 126.581H278.736V130.945H298.44V126.581Z" fill="#084B83"/>
<path d="M271.803 126.581H264.87V130.945H271.803V126.581Z" fill="#084B83"/>
<path d="M392.582 126.581H385.649V130.945H392.582V126.581Z" fill="#084B83"/>
<path d="M378.716 126.581H331.645V130.945H378.716V126.581Z" fill="#084B83"/>
</g>
<defs>
<clipPath id="clip0">
<rect width="471" height="408" fill="white"/>
</clipPath>
</defs>
</svg>
