<svg width="434" height="425" viewBox="0 0 434 425" fill="none" xmlns="http://www.w3.org/2000/svg">
<g clip-path="url(#clip0)">
<path d="M345.665 301.957C345.665 301.957 399.357 304.863 386.851 322.561C374.345 340.258 341.484 312.179 341.484 312.179L345.665 301.957Z" fill="#FFB8B8"/>
<path d="M246.721 133.391L257.65 136.252C257.65 136.252 264.025 156.277 268.578 174.395C273.132 192.513 282.239 246.868 282.239 246.868L352.845 298.679L344.424 318.403L250.364 279.588L229.417 193.467L246.721 133.391Z" fill="#084B83"/>
<path opacity="0.2" d="M257.004 168.937L252.93 258.249L261.43 284.802L236.532 265.685L257.004 168.937Z" fill="black"/>
<path d="M271.766 327.445C271.766 327.445 283.605 360.82 285.427 383.706C287.248 406.592 289.069 424.71 289.069 424.71H233.516L222.587 407.546V424.71H157.926C157.926 424.71 139.711 362.728 146.997 355.099C154.283 347.47 223.498 315.049 223.498 315.049L271.766 327.445Z" fill="#2F2E41"/>
<path d="M377.621 423.841H56.159V425H377.621V423.841Z" fill="#3F3D56"/>
<path d="M202.096 97.1554C221.209 97.1554 236.703 80.9319 236.703 60.9193C236.703 40.9067 221.209 24.6833 202.096 24.6833C182.983 24.6833 167.488 40.9067 167.488 60.9193C167.488 80.9319 182.983 97.1554 202.096 97.1554Z" fill="#FFB8B8"/>
<path d="M175.685 76.1766L172.953 118.134L207.56 166.767L224.864 120.995C224.864 120.995 209.381 110.506 218.489 88.5731L175.685 76.1766Z" fill="#FFB8B8"/>
<path d="M276.773 335.55C276.773 344.135 254.005 357.483 254.005 357.483V362.251L244.898 367.019L224.863 325.064L219.402 370.831C219.402 370.831 179.327 377.51 166.579 370.831C153.826 364.157 147.452 367.019 129.238 360.345C111.023 353.671 136.524 264.031 136.524 264.031L118.31 125.763L158.103 104.93L160.2 103.829L165.672 102.775L174.06 101.153L202.095 120.995L204.352 133.393L205.741 141.022L213.022 132.437L218.522 113.498L257.651 136.254L246.723 227.794C246.723 227.794 276.773 326.97 276.773 335.55Z" fill="#084B83"/>
<path d="M142.899 365.112C142.899 365.112 184.792 400.394 164.756 407.069C144.72 413.744 133.792 370.833 133.792 370.833L142.899 365.112Z" fill="#FFB8B8"/>
<path d="M127.417 127.67L118.309 125.763C118.309 125.763 104.649 133.391 103.738 148.649C102.827 163.906 90.9878 270.707 90.9878 270.707L129.238 378.462L160.203 366.065L130.149 264.986L152.917 177.256L127.417 127.67Z" fill="#084B83"/>
<path d="M206.101 156.77C207.934 156.77 209.421 155.214 209.421 153.294C209.421 151.375 207.934 149.818 206.101 149.818C204.267 149.818 202.781 151.375 202.781 153.294C202.781 155.214 204.267 156.77 206.101 156.77Z" fill="#2F2E41"/>
<path d="M206.101 179.364C207.934 179.364 209.421 177.808 209.421 175.888C209.421 173.969 207.934 172.412 206.101 172.412C204.267 172.412 202.781 173.969 202.781 175.888C202.781 177.808 204.267 179.364 206.101 179.364Z" fill="#2F2E41"/>
<path d="M224.913 328.252C226.746 328.252 228.232 326.696 228.232 324.776C228.232 322.856 226.746 321.3 224.913 321.3C223.079 321.3 221.593 322.856 221.593 324.776C221.593 326.696 223.079 328.252 224.913 328.252Z" fill="#2F2E41"/>
<path d="M172.877 23.7971L166.48 21.1154C166.48 21.1154 179.856 5.69584 198.467 7.03671L193.232 1.00292C193.232 1.00292 206.027 -4.36037 217.659 9.71835C223.773 17.1192 230.848 25.8186 235.258 35.6182H242.109L239.25 42.2106L249.258 48.8031L238.985 47.6189C239.597 51.229 239.691 54.9145 239.264 58.5536C238.823 62.1939 237.049 65.5125 234.316 67.809V67.809C234.316 67.809 226.382 50.6137 226.382 47.9321V54.6362C226.382 54.6362 219.985 48.6025 219.985 44.58L216.495 49.273H193.232L196.722 43.2392L183.345 45.2504L188.58 37.8758L167.87 68.3282C167.87 68.3282 156.011 33.8533 172.877 23.7971Z" fill="#2F2E41"/>
<path d="M378.671 280.132C409.228 280.132 434 254.194 434 222.199C434 190.204 409.228 164.266 378.671 164.266C348.114 164.266 323.342 190.204 323.342 222.199C323.342 254.194 348.114 280.132 378.671 280.132Z" fill="#3F3D56"/>
<path opacity="0.1" d="M378.671 272.021C404.95 272.021 426.254 249.715 426.254 222.199C426.254 194.683 404.95 172.377 378.671 172.377C352.392 172.377 331.088 194.683 331.088 222.199C331.088 249.715 352.392 272.021 378.671 272.021Z" fill="black"/>
<path d="M376.391 251.599V244.347C372.89 244.276 369.268 242.983 367.156 241.188L368.604 236.378C371.115 238.348 374.159 239.429 377.296 239.465C381.582 239.465 384.479 236.521 384.479 232.429C384.479 228.48 382.125 226.039 377.658 223.885C371.502 221.013 367.699 217.71 367.699 211.464C367.699 205.505 371.26 200.982 376.813 199.905V192.653H380.556V199.618C383.346 199.658 386.068 200.529 388.403 202.13L386.893 206.869C384.654 205.264 382.001 204.413 379.288 204.428C374.641 204.428 372.89 207.73 372.89 210.602C372.89 214.336 375.123 216.203 380.375 218.788C386.592 221.803 389.731 225.536 389.731 231.926C389.731 237.598 386.411 242.911 380.194 244.131V251.599H376.391Z" fill="#084B83"/>
<path opacity="0.2" d="M138.325 292.486L160.454 364.863L142.749 289.551L138.325 292.486Z" fill="black"/>
<path d="M25.503 151.091H11.4567C10.8446 151.09 10.2576 150.835 9.82474 150.382C9.39185 149.929 9.14836 149.314 9.14767 148.673V127.532C9.14836 126.891 9.39185 126.276 9.82474 125.823C10.2576 125.37 10.8446 125.115 11.4567 125.114H25.503C26.1152 125.115 26.7021 125.37 27.135 125.823C27.5679 126.276 27.8114 126.891 27.8121 127.532V148.673C27.8114 149.314 27.5679 149.929 27.135 150.382C26.7021 150.835 26.1152 151.09 25.503 151.091V151.091ZM11.4567 126.273C11.1379 126.273 10.8323 126.406 10.6069 126.642C10.3815 126.878 10.2546 127.198 10.2543 127.532V148.673C10.2546 149.007 10.3815 149.327 10.6069 149.563C10.8323 149.799 11.1379 149.932 11.4567 149.932H25.503C25.8218 149.932 26.1274 149.799 26.3528 149.563C26.5783 149.327 26.7051 149.007 26.7055 148.673V127.532C26.7051 127.198 26.5783 126.878 26.3528 126.642C26.1274 126.406 25.8218 126.273 25.503 126.273H11.4567Z" fill="#3F3D56"/>
<path d="M51.1589 151.091H38.4743C37.6816 151.09 36.9216 150.76 36.3611 150.173C35.8006 149.586 35.4853 148.79 35.4844 147.96V105.264C35.4853 104.434 35.8006 103.639 36.3611 103.052C36.9216 102.465 37.6816 102.135 38.4743 102.134H51.1589C51.9516 102.135 52.7115 102.465 53.272 103.052C53.8325 103.639 54.1478 104.434 54.1488 105.264V147.96C54.1478 148.79 53.8325 149.586 53.272 150.173C52.7115 150.76 51.9516 151.09 51.1589 151.091V151.091ZM38.4743 103.292C37.9749 103.293 37.4962 103.501 37.1432 103.871C36.7901 104.24 36.5915 104.742 36.591 105.264V147.96C36.5915 148.483 36.7901 148.985 37.1432 149.354C37.4962 149.724 37.9749 149.932 38.4743 149.932H51.1589C51.6582 149.932 52.1369 149.724 52.49 149.354C52.843 148.985 53.0416 148.483 53.0422 147.96V105.264C53.0416 104.742 52.843 104.24 52.49 103.871C52.1369 103.501 51.6582 103.293 51.1589 103.292L38.4743 103.292Z" fill="#3F3D56"/>
<path d="M77.0057 151.091H65.3007C64.3782 151.09 63.4937 150.706 62.8414 150.023C62.189 149.34 61.8221 148.414 61.821 147.448V84.6356C61.8221 83.6697 62.189 82.7436 62.8414 82.0605C63.4937 81.3775 64.3782 80.9933 65.3007 80.9922H77.0057C77.9283 80.9933 78.8128 81.3775 79.4651 82.0605C80.1174 82.7436 80.4844 83.6697 80.4854 84.6356V147.448C80.4844 148.414 80.1174 149.34 79.4651 150.023C78.8128 150.706 77.9283 151.09 77.0057 151.091V151.091ZM65.3007 82.1508C64.6716 82.1516 64.0684 82.4136 63.6235 82.8794C63.1786 83.3453 62.9283 83.9769 62.9276 84.6356V147.448C62.9283 148.106 63.1786 148.738 63.6235 149.204C64.0684 149.67 64.6716 149.932 65.3007 149.932H77.0057C77.6349 149.932 78.2381 149.67 78.683 149.204C79.1279 148.738 79.3781 148.106 79.3788 147.448V84.6356C79.3781 83.9769 79.1279 83.3453 78.683 82.8794C78.2381 82.4136 77.6349 82.1516 77.0057 82.1508H65.3007Z" fill="#3F3D56"/>
<path d="M23.7472 129.14H13.2126V147.065H23.7472V129.14Z" fill="#084B83"/>
<path d="M50.0839 106.39H39.5492V147.065H50.0839V106.39Z" fill="#084B83"/>
<path d="M76.4205 85.2483H65.8859V147.065H76.4205V85.2483Z" fill="#084B83"/>
<path d="M400.029 84.4682H326.442C326.369 84.4682 326.297 84.4532 326.23 84.4241C326.163 84.395 326.102 84.3523 326.05 84.2985C325.999 84.2447 325.958 84.1808 325.93 84.1105C325.903 84.0403 325.888 83.9649 325.888 83.8888V5.67934C325.888 5.52569 325.947 5.37833 326.05 5.26969C326.154 5.16104 326.295 5.10001 326.442 5.10001C326.588 5.10001 326.729 5.16104 326.833 5.26969C326.937 5.37833 326.995 5.52569 326.995 5.67934V83.3095H400.029C400.176 83.3095 400.317 83.3705 400.42 83.4792C400.524 83.5878 400.583 83.7352 400.583 83.8888C400.583 84.0425 400.524 84.1898 400.42 84.2985C400.317 84.4071 400.176 84.4682 400.029 84.4682Z" fill="#3F3D56"/>
<path d="M87.9732 159.202H0.553291C0.480626 159.202 0.408672 159.187 0.341535 159.158C0.274398 159.129 0.213394 159.086 0.162013 159.032C0.110631 158.978 0.0698764 158.914 0.0420777 158.844C0.0142789 158.774 -1.88814e-05 158.698 1.87135e-08 158.622V67.6676C1.87135e-08 67.514 0.0582926 67.3666 0.162055 67.258C0.265817 67.1493 0.406549 67.0883 0.553291 67.0883C0.700033 67.0883 0.840765 67.1493 0.944527 67.258C1.04829 67.3666 1.10658 67.514 1.10658 67.6676V158.043H87.9732C88.12 158.043 88.2607 158.104 88.3645 158.213C88.4682 158.321 88.5265 158.469 88.5265 158.622C88.5265 158.776 88.4682 158.923 88.3645 159.032C88.2607 159.141 88.12 159.202 87.9732 159.202Z" fill="#3F3D56"/>
<path d="M351.837 77.2076H337.791C337.178 77.2069 336.591 76.952 336.158 76.4988C335.725 76.0455 335.482 75.4309 335.481 74.7899V53.6483C335.482 53.0072 335.725 52.3926 336.158 51.9394C336.591 51.4861 337.178 51.2312 337.791 51.2305H351.837C352.449 51.2313 353.036 51.4863 353.469 51.9395C353.901 52.3928 354.145 53.0073 354.146 53.6483V74.7899C354.145 75.4309 353.901 76.0454 353.469 76.4986C353.036 76.9519 352.449 77.2068 351.837 77.2076ZM337.791 52.3892C337.472 52.3896 337.166 52.5224 336.941 52.7584C336.715 52.9944 336.588 53.3145 336.588 53.6483V74.7899C336.588 75.1237 336.715 75.4437 336.941 75.6798C337.166 75.9158 337.472 76.0486 337.791 76.049H351.837C352.156 76.0486 352.461 75.9158 352.686 75.6797C352.912 75.4437 353.039 75.1237 353.039 74.7899V53.6483C353.039 53.3145 352.912 52.9945 352.686 52.7585C352.461 52.5224 352.156 52.3896 351.837 52.3892H337.791Z" fill="#3F3D56"/>
<path d="M380.602 77.2076H367.674C366.913 77.2067 366.184 76.8899 365.646 76.3269C365.109 75.7639 364.806 75.0005 364.806 74.2043V35.9108C364.806 35.1147 365.109 34.3513 365.647 33.7884C366.184 33.2254 366.913 32.9087 367.674 32.9078H380.602C381.362 32.9087 382.091 33.2254 382.629 33.7884C383.167 34.3513 383.469 35.1147 383.47 35.9108V74.2043C383.469 75.0005 383.167 75.7639 382.629 76.3269C382.091 76.8899 381.362 77.2067 380.602 77.2076V77.2076ZM367.674 34.0665C367.207 34.067 366.759 34.2615 366.429 34.6073C366.098 34.953 365.913 35.4219 365.912 35.9108V74.2043C365.913 74.6933 366.098 75.1622 366.429 75.5081C366.759 75.8539 367.207 76.0484 367.674 76.0489H380.602C381.069 76.0484 381.517 75.8539 381.847 75.5081C382.177 75.1622 382.363 74.6933 382.363 74.2043V35.9108C382.363 35.4219 382.177 34.953 381.847 34.6073C381.517 34.2615 381.069 34.067 380.602 34.0665H367.674Z" fill="#3F3D56"/>
<path d="M349.828 55.4575H339.293V73.3819H349.828V55.4575Z" fill="#084B83"/>
<path d="M379.405 37.7173H368.87V72.3981H379.405V37.7173Z" fill="#084B83"/>
<path d="M344.7 45.0738C347.45 45.0738 349.68 42.7394 349.68 39.8598C349.68 36.9802 347.45 34.6458 344.7 34.6458C341.95 34.6458 339.721 36.9802 339.721 39.8598C339.721 42.7394 341.95 45.0738 344.7 45.0738Z" fill="#084B83"/>
<path d="M374.025 25.3765C376.775 25.3765 379.004 23.0422 379.004 20.1626C379.004 17.283 376.775 14.9486 374.025 14.9486C371.274 14.9486 369.045 17.283 369.045 20.1626C369.045 23.0422 371.274 25.3765 374.025 25.3765Z" fill="#084B83"/>
</g>
<defs>
<clipPath id="clip0">
<rect width="434" height="425" fill="white"/>
</clipPath>
</defs>
</svg>
