<svg width="532" height="426" viewBox="0 0 532 426" fill="none" xmlns="http://www.w3.org/2000/svg">
<g filter="url(#filter0_d)">
<g clip-path="url(#clip0)">
<path d="M266 418C410.699 418 528 411.497 528 403.475C528 395.454 410.699 388.951 266 388.951C121.301 388.951 4 395.454 4 403.475C4 411.497 121.301 418 266 418Z" fill="#E6E6E6"/>
<path d="M415.972 140.606C415.972 140.606 408.161 137.925 403.14 148.648C398.119 159.37 390.308 171.165 390.308 171.165L394.771 172.237C394.771 172.237 395.887 164.731 398.677 163.659L397.561 173.309C397.561 173.309 431.036 184.568 446.1 172.237L445.542 168.484C445.542 168.484 447.774 169.02 447.774 172.237L449.448 170.629C449.448 170.629 447.774 167.412 442.753 163.123C439.457 160.308 438.324 154.952 437.935 151.604C437.644 148.808 436.479 146.162 434.595 144.013C431.258 140.297 425.178 136.347 415.972 140.606Z" fill="#2F2E41"/>
<path d="M370.098 232.588L377.403 241.521L382.051 236.417L378.067 230.036L370.098 232.588Z" fill="#FBBEBE"/>
<path d="M367.442 369.771L364.787 383.17L371.427 386.361L376.075 383.17V369.771H367.442Z" fill="#FBBEBE"/>
<path d="M413.923 369.771L416.579 383.17L409.939 386.361L405.291 383.17V369.771H413.923Z" fill="#FBBEBE"/>
<path d="M386.699 249.178L377.403 312.984L364.122 371.047L380.059 372.961L392.675 318.726L408.611 272.786L406.619 327.659L403.299 372.961H415.251L423.883 311.708L433.429 266.167L433.179 249.178H386.699Z" fill="#2F2E41"/>
<path d="M369.434 381.894C369.434 381.894 366.114 378.066 364.122 379.98C362.13 381.894 357.482 389.551 357.482 389.551C357.482 389.551 346.858 395.294 355.49 396.57C364.122 397.846 366.778 396.57 366.778 395.932C366.778 395.294 368.106 393.379 368.106 393.379L371.427 394.018L376.075 392.741C376.075 392.741 378.067 380.985 376.075 381.44C374.083 381.894 370.099 383.809 369.434 381.894Z" fill="#2F2E41"/>
<path d="M411.931 381.894C411.931 381.894 415.251 378.066 417.243 379.98C419.235 381.894 423.883 389.551 423.883 389.551C423.883 389.551 434.507 395.294 425.875 396.57C417.243 397.846 414.587 396.57 414.587 395.932C414.587 395.294 413.259 393.379 413.259 393.379L409.939 394.018L405.291 392.741C405.291 392.741 403.299 380.985 405.291 381.44C407.283 381.894 411.267 383.809 411.931 381.894Z" fill="#2F2E41"/>
<path d="M418.239 173.568C425.574 173.568 431.52 167.854 431.52 160.807C431.52 153.759 425.574 148.045 418.239 148.045C410.905 148.045 404.959 153.759 404.959 160.807C404.959 167.854 410.905 173.568 418.239 173.568Z" fill="#FBBEBE"/>
<path d="M427.203 168.782C427.203 168.782 425.875 179.629 426.539 182.182C427.203 184.734 428.532 188.562 428.532 188.562L407.283 184.734C407.283 184.734 413.259 172.611 411.931 170.697C410.603 168.782 427.203 168.782 427.203 168.782Z" fill="#FBBEBE"/>
<path d="M429.196 184.096L407.283 179.629L394.667 253.644C400.354 252.152 406.38 252.375 411.931 254.282C421.227 257.473 433.844 254.282 433.844 254.282L431.188 184.734L429.196 184.096Z" fill="#084B83"/>
<path d="M411.746 173.767L403.963 177.715L394.003 179.629L383.379 203.876L384.707 221.103C384.707 221.103 373.419 240.883 372.091 251.73C372.091 251.73 373.419 268.32 395.331 267.682L409.939 228.76C409.939 228.76 415.915 199.409 409.939 191.114C409.939 191.114 414.217 175.562 411.746 173.767Z" fill="#2F2E41"/>
<path d="M397.987 179.629L395.837 179.277L394.003 179.629C394.003 179.629 389.355 180.267 384.043 184.734C378.731 189.2 360.802 203.238 359.474 207.066C358.146 210.894 358.81 217.275 360.802 221.103C362.794 224.932 366.778 230.036 366.778 230.036L368.77 234.503L380.059 231.312C380.059 231.312 372.754 217.913 373.419 212.17L386.699 201.961L397.987 179.629Z" fill="#2F2E41"/>
<path d="M426.468 176.652L436.5 188.562L441.812 194.943L435.172 216.637L431.852 235.141C431.852 235.141 439.82 264.491 433.18 273.424C433.18 273.424 429.196 277.891 427.867 272.786C426.539 267.682 426.539 243.435 426.539 243.435C426.539 243.435 421.227 211.532 423.883 203.238C426.539 194.943 423.741 178.141 426.468 176.652Z" fill="#2F2E41"/>
<path d="M435.836 268.958V275.338C435.836 275.338 434.508 296.394 441.148 293.842C447.788 291.29 443.14 275.338 443.14 275.338L442.476 268.32L435.836 268.958Z" fill="#FBBEBE"/>
<path d="M403.436 161.487C408.486 157.975 412.574 153.93 415.278 149.117C415.278 149.117 424.547 159.013 430.211 159.508C435.875 160.003 430.726 147.633 430.726 147.633L420.427 145.159L410.644 146.149L402.921 151.097L403.436 161.487Z" fill="#2F2E41"/>
<path d="M436.5 193.029L441.811 194.943L442.476 201.323L445.132 240.245L443.804 269.596L433.844 270.234L430.523 237.693L429.196 201.962L436.5 193.029Z" fill="#2F2E41"/>
<path d="M274.817 95.8808H272.51V35.1496C272.51 30.5337 271.564 25.963 269.726 21.6984C267.888 17.4339 265.193 13.559 261.797 10.2951C258.4 7.03111 254.367 4.44201 249.929 2.67558C245.491 0.909149 240.735 -1.35106e-05 235.931 1.50591e-10H102.03C97.2267 -1.35106e-05 92.4701 0.909149 88.0321 2.67558C83.5941 4.44201 79.5616 7.03111 76.1649 10.2951C72.7682 13.559 70.0738 17.4339 68.2355 21.6984C66.3972 25.963 65.451 30.5337 65.451 35.1496V368.326C65.451 372.942 66.3972 377.512 68.2355 381.777C70.0738 386.042 72.7682 389.916 76.1649 393.18C79.5616 396.444 83.5941 399.033 88.0321 400.8C92.4701 402.566 97.2267 403.475 102.03 403.475H235.931C240.735 403.475 245.491 402.566 249.929 400.8C254.367 399.033 258.4 396.444 261.797 393.18C265.193 389.916 267.888 386.042 269.726 381.777C271.564 377.512 272.51 372.942 272.51 368.326V139.11H274.817V95.8808Z" fill="#3F3D56"/>
<path d="M264.725 35.3949V368.081C264.724 375.043 261.846 381.72 256.723 386.643C251.6 391.566 244.652 394.331 237.406 394.331H102.863C95.6181 394.331 88.6697 391.566 83.5466 386.643C78.4234 381.72 75.5452 375.043 75.5451 368.081V35.3949C75.5452 28.4328 78.4234 21.756 83.5466 16.8331C88.6697 11.9102 95.6181 9.14448 102.863 9.14435H119.185C118.383 11.0381 118.078 13.0923 118.296 15.1261C118.514 17.16 119.249 19.1111 120.435 20.808C121.622 22.5049 123.225 23.8955 125.103 24.8576C126.98 25.8196 129.075 26.3235 131.203 26.325H207.913C210.041 26.3235 212.136 25.8195 214.013 24.8575C215.891 23.8955 217.493 22.5049 218.68 20.808C219.867 19.1111 220.602 17.16 220.82 15.1261C221.038 13.0923 220.733 11.0381 219.931 9.14435H237.406C244.652 9.14448 251.6 11.9102 256.723 16.8331C261.846 21.756 264.724 28.4328 264.725 35.3949Z" fill="white"/>
<path d="M137.699 287.281H134.87L135.813 234.171H136.756L137.699 287.281Z" fill="#E6E6E6"/>
<path d="M140.057 200.734L144.624 193.952C143.27 190.356 141.705 186.837 139.939 183.411L136.985 185.704L139.324 182.231C137.095 178.015 135.341 175.359 135.341 175.359C135.341 175.359 126.182 189.23 123.121 203.915L128.982 212.619L122.494 207.583C122.263 209.294 122.144 211.017 122.138 212.742C122.138 230.135 128.049 244.234 135.341 244.234C142.634 244.234 148.545 230.135 148.545 212.742C148.545 207.35 147.275 201.709 145.524 196.491L140.057 200.734Z" fill="#E6E6E6"/>
<path d="M211.361 287.281H208.531L209.475 234.171H210.418L211.361 287.281Z" fill="#E6E6E6"/>
<path d="M213.719 200.734L218.286 193.952C216.931 190.356 215.367 186.837 213.6 183.411L210.647 185.704L212.985 182.231C210.757 178.015 209.003 175.359 209.003 175.359C209.003 175.359 199.843 189.23 196.783 203.915L202.644 212.619L196.155 207.583C195.924 209.294 195.805 211.017 195.799 212.742C195.799 230.135 201.711 244.234 209.003 244.234C216.295 244.234 222.206 230.135 222.206 212.742C222.206 207.35 220.937 201.709 219.186 196.491L213.719 200.734Z" fill="#E6E6E6"/>
<path d="M135.546 111.233C149.904 111.233 161.544 100.048 161.544 86.2506C161.544 72.4534 149.904 61.2685 135.546 61.2685C121.187 61.2685 109.548 72.4534 109.548 86.2506C109.548 100.048 121.187 111.233 135.546 111.233Z" fill="#E6E6E6"/>
<path d="M171.556 279.548H165.722L167.667 170.042H169.611L171.556 279.548Z" fill="#E6E6E6"/>
<path d="M176.417 101.098L185.835 87.1127C183.042 79.6996 179.816 72.4438 176.173 65.3798L170.084 70.106L174.905 62.9456C170.31 54.2537 166.694 48.7774 166.694 48.7774C166.694 48.7774 147.808 77.3767 141.498 107.657L153.582 125.603L140.204 115.22C139.728 118.747 139.482 122.3 139.47 125.857C139.47 161.719 151.659 190.79 166.694 190.79C181.73 190.79 193.919 161.719 193.919 125.857C193.919 114.739 191.301 103.108 187.691 92.3485L176.417 101.098Z" fill="#E6E6E6"/>
<path d="M268.649 295.332V369.776C268.649 377.027 265.651 383.981 260.316 389.108C254.98 394.235 247.743 397.116 240.198 397.116H100.072C92.5263 397.116 85.2896 394.235 79.9539 389.108C74.6182 383.981 71.6206 377.027 71.6204 369.776V302.59C83.6371 289.035 98.4493 278.023 115.121 270.25C131.792 262.476 149.961 258.11 168.478 257.428C186.995 256.746 205.458 259.763 222.7 266.287C239.942 272.811 255.588 282.701 268.649 295.332V295.332Z" fill="#3F3D56"/>
<path opacity="0.2" d="M170.282 368.767C192.268 368.767 210.091 351.64 210.091 330.514C210.091 309.387 192.268 292.261 170.282 292.261C148.296 292.261 130.473 309.387 130.473 330.514C130.473 351.64 148.296 368.767 170.282 368.767Z" fill="#6C63FF"/>
<path d="M170.282 361.315C187.985 361.315 202.336 347.525 202.336 330.514C202.336 313.503 187.985 299.713 170.282 299.713C152.579 299.713 138.228 313.503 138.228 330.514C138.228 347.525 152.579 361.315 170.282 361.315Z" fill="#084B83"/>
<path d="M166.543 343.683L155.246 329.726L161.816 324.816L167.164 331.425L185.233 313.097L191.275 318.597L166.543 343.683Z" fill="white"/>
</g>
</g>
<defs>
<filter id="filter0_d" x="0" y="0" width="532" height="426" filterUnits="userSpaceOnUse" color-interpolation-filters="sRGB">
<feFlood flood-opacity="0" result="BackgroundImageFix"/>
<feColorMatrix in="SourceAlpha" type="matrix" values="0 0 0 0 0 0 0 0 0 0 0 0 0 0 0 0 0 0 127 0"/>
<feOffset dy="4"/>
<feGaussianBlur stdDeviation="2"/>
<feColorMatrix type="matrix" values="0 0 0 0 0 0 0 0 0 0 0 0 0 0 0 0 0 0 0.25 0"/>
<feBlend mode="normal" in2="BackgroundImageFix" result="effect1_dropShadow"/>
<feBlend mode="normal" in="SourceGraphic" in2="effect1_dropShadow" result="shape"/>
</filter>
<clipPath id="clip0">
<rect x="4" width="524" height="418" fill="white"/>
</clipPath>
</defs>
</svg>
